<svg id="圖層_1" data-name="圖層 1" xmlns="http://www.w3.org/2000/svg" viewBox="0 0 408.18 408.18"><defs><style>.cls-1{fill:#dcdcdc;}.cls-2{fill:#e1915b;}</style></defs><title>ai</title><path class="cls-1" d="M998.31,944.1c-112.53,0-204.08-91.55-204.08-204.07S885.78,536,998.31,536,1202.38,627.5,1202.38,740,1110.83,944.1,998.31,944.1Zm0-385.48C898.28,558.62,816.9,640,816.9,740s81.38,181.41,181.41,181.41,181.4-81.39,181.4-181.41S1098.33,558.62,998.31,558.62Z" transform="translate(-794.21 -535.94)"/><path class="cls-2" d="M998.14,944.11A204.07,204.07,0,0,1,831.57,622.35a11.33,11.33,0,0,1,18.52,13.07A181.37,181.37,0,1,0,998.47,558.6h-2.08a11.33,11.33,0,0,1-.1-22.66h2.18a204.09,204.09,0,0,1-.33,408.17Z" transform="translate(-794.21 -535.94)"/><path class="cls-2" d="M911.54,758.38c0-8.08,4.93-13.27,10.8-16.42v-.42c-4.84-3.49-8.33-8.25-8.33-15,0-10.13,8-16.59,19-16.59,11.14,0,18.29,6.72,18.29,16.76,0,6.21-3.92,11.4-8.08,14.37v.43c5.78,3.15,10.54,8.25,10.54,16.84,0,9.53-8.42,16.85-21.18,16.85C920.56,775.23,911.54,768.25,911.54,758.38Zm30.54-.42c0-6.55-5.79-9.27-14-12.59A15.13,15.13,0,0,0,922.34,757c0,5.7,4.68,9.36,10.55,9.36C938.17,766.38,942.08,763.4,942.08,758Zm-1-30.46c0-5.1-3.06-8.76-8.34-8.76-4.25,0-7.65,2.81-7.65,7.83,0,5.95,4.85,8.84,11.48,11.48A15.08,15.08,0,0,0,941.06,727.5Z" transform="translate(-794.21 -535.94)"/><path class="cls-2" d="M967.68,766.63l5.79-8c3.57,3.49,8,6.38,13.86,6.38,6.56,0,11.15-4.17,11.15-11.57s-4.25-11.4-10.63-11.4c-3.75,0-5.79.94-9.45,3.32l-5.7-3.75,1.7-30.54h33.69v10.47H985.21L984,734.9a16.27,16.27,0,0,1,7.57-1.78c10.55,0,19.39,6.29,19.39,20,0,14-10.37,22.12-22,22.12A28.7,28.7,0,0,1,967.68,766.63Z" transform="translate(-794.21 -535.94)"/><path class="cls-2" d="M1026.13,729.71c0-12.59,6.29-19.82,15.31-19.82s15.39,7.23,15.39,19.82-6.37,20.08-15.39,20.08S1026.13,742.39,1026.13,729.71Zm21.86,0c0-9.27-2.89-12.76-6.55-12.76s-6.47,3.49-6.47,12.76,2.81,13,6.47,13S1048,739,1048,729.71Zm29.77-19.82h7.4l-34.28,65.34h-7.32Zm-5.87,45.26c0-12.67,6.38-19.91,15.31-19.91s15.4,7.24,15.4,19.91-6.46,20.08-15.4,20.08S1071.89,767.74,1071.89,755.15Zm21.86,0c0-9.27-2.89-12.85-6.55-12.85s-6.55,3.58-6.55,12.85,2.9,12.93,6.55,12.93S1093.75,764.42,1093.75,755.15Z" transform="translate(-794.21 -535.94)"/></svg>