<svg id="圖層_1" data-name="圖層 1" xmlns="http://www.w3.org/2000/svg" viewBox="0 0 841.89 476.7"><defs><style>.cls-1{fill:#b3b3b4;}.cls-2{fill:#939393;}</style></defs><title>background</title><rect class="cls-1" width="841.89" height="476.7"/><path class="cls-2" d="M-135.57,109.65v3.58H95.65a19.2,19.2,0,0,0,15.62-8.07v58a19.24,19.24,0,0,0,38.48,0v-.4a19.21,19.21,0,0,0,31.32,0v54.39a19.25,19.25,0,0,0,38.49,0V143a19.16,19.16,0,0,0,15.62,8.07h0A19.32,19.32,0,0,0,250.88,143v55.87a19.24,19.24,0,0,0,38.48,0V174.32A19.17,19.17,0,0,0,305,182.39h0a19.37,19.37,0,0,0,15.67-8.08v49a19.24,19.24,0,0,0,38.48,0V150.65a19.16,19.16,0,0,0,15.62,8.07h0c.39,0,.76,0,1.14-.05l.74,0c.56-.06,1.11-.14,1.66-.25l.22,0c.59-.12,1.18-.27,1.75-.44h.06a19.29,19.29,0,0,0,9.75-6.83v61.81a19.25,19.25,0,1,0,38.49,0V179.5a19.17,19.17,0,0,0,15.62,8.08h0A19.39,19.39,0,0,0,460,179.5v4.61a19.24,19.24,0,0,0,38.48,0V110.33a19.17,19.17,0,0,0,15.62,8.07H848.65v-3.57H514.06a15.64,15.64,0,0,1-15.62-15.62v-9.1h0a19.22,19.22,0,0,0-34.86-10.24V75.26a19.24,19.24,0,0,0-38.48,0V94.64a19.17,19.17,0,0,0-15.62-8.07h0c-.39,0-.77,0-1.15.05l-.74,0c-.56.06-1.12.15-1.67.25l-.2,0a18,18,0,0,0-1.79.45h0a19.36,19.36,0,0,0-9.76,6.83V46.41a19.24,19.24,0,0,0-38.48,0v72.67A19.18,19.18,0,0,0,340,111h0a19.39,19.39,0,0,0-15.66,8.09V46.41a19.25,19.25,0,0,0-38.49,0V94.64a19.16,19.16,0,0,0-15.62-8.07h0a19.32,19.32,0,0,0-15.66,8.08V38.78a19.24,19.24,0,0,0-38.48,0V79.87a19.18,19.18,0,0,0-15.62-8.08h-.05a19,19,0,0,0-8.18,1.86,19.34,19.34,0,0,0-7.48,6.22V32.75a19.24,19.24,0,0,0-38.48,0V58.91a19.17,19.17,0,0,0-15.62-8.07h0A19.29,19.29,0,0,0,111.27,70V94a15.63,15.63,0,0,1-15.62,15.62ZM181.07,91v34.84a15.66,15.66,0,0,1-31.32,0V32.75a15.66,15.66,0,0,1,31.32,0ZM216,95.55v17.37a19.18,19.18,0,0,0-31.33,0V91A15.67,15.67,0,0,1,216,91ZM219.56,91V75.26a15.66,15.66,0,0,1,31.32,0v56.59a15.66,15.66,0,0,1-31.32,0V91ZM320.69,130.2v3.68a19.2,19.2,0,0,0-31.33,0V46.41a15.67,15.67,0,0,1,31.33,0V130.2Zm-31.33,26.22V145a15.67,15.67,0,0,1,31.33,0v18.13a15.67,15.67,0,0,1-31.33,0v-6.73Zm101.13-110V83.83a19.19,19.19,0,0,0-31.32,0V46.41a15.66,15.66,0,0,1,31.32,0Zm38.15,76.09a15.66,15.66,0,1,1,31.32,0v45.84a15.66,15.66,0,0,1-31.32,0V122.5Zm66.22,20.78v9.86a15.66,15.66,0,0,1-31.32,0V91a15.66,15.66,0,0,1,31.32,0v52.29ZM393.73,187a19.2,19.2,0,0,0,31.33,0v25.9a15.67,15.67,0,1,1-31.33,0Zm0-44a18.69,18.69,0,0,0,.34-3.53V103a15.63,15.63,0,0,1,13.81-12.78l.34,0c.4,0,.8,0,1.2,0a15.68,15.68,0,0,1,15.64,15.66v70a15.67,15.67,0,1,1-31.33,0V143Zm-69.46,80.31V211.41a19.17,19.17,0,0,0,31.32,0v11.91a15.66,15.66,0,1,1-31.32,0Zm0-60.12V130.25a15.66,15.66,0,0,1,31.32,0v70a15.66,15.66,0,1,1-31.32,0V163.2Zm-69.81-31.3V105.81a15.66,15.66,0,0,1,31.32,0v51.56a15.66,15.66,0,1,1-31.32,0V131.9Zm-69.81,63.34a19.18,19.18,0,0,0,31.33,0v21.89a15.67,15.67,0,0,1-31.33,0Zm0-43.61V124.05a15.67,15.67,0,0,1,31.33,0v60.06a15.67,15.67,0,0,1-31.33,0Zm-34.9,0V137a19.17,19.17,0,0,0,31.32,0v14.67a15.66,15.66,0,0,1-31.32,0Zm-34.9-19.09a19.19,19.19,0,0,0,31.32,0v30.61a15.66,15.66,0,1,1-31.32,0Z"/><path class="cls-2" d="M1034.48,401.46v-3.58H803.26A19.18,19.18,0,0,0,787.64,406V348a19.24,19.24,0,0,0-38.48,0v.4a19.22,19.22,0,0,0-31.32,0V294a19.25,19.25,0,0,0-38.49,0V368.1A19.17,19.17,0,0,0,663.73,360h0A19.39,19.39,0,0,0,648,368.1V312.23a19.24,19.24,0,0,0-38.48,0V336.8a19.18,19.18,0,0,0-15.62-8.08h0a19.37,19.37,0,0,0-15.67,8.08v-49a19.24,19.24,0,1,0-38.48,0v72.68a19.17,19.17,0,0,0-15.62-8.08h0c-.39,0-.76,0-1.14.06s-.5,0-.74,0c-.56.06-1.11.15-1.66.25l-.22,0c-.59.12-1.18.27-1.75.44l-.06,0a19.21,19.21,0,0,0-9.75,6.82V298.23a19.25,19.25,0,0,0-38.49,0v33.38a19.17,19.17,0,0,0-15.62-8.08h0A19.37,19.37,0,0,0,439,331.62V327a19.24,19.24,0,0,0-38.48,0v73.78a19.18,19.18,0,0,0-15.62-8.08h-60.6v3.58h60.6a15.63,15.63,0,0,1,15.62,15.62V421h0a19.22,19.22,0,0,0,34.86,10.23v4.61a19.24,19.24,0,1,0,38.48,0V416.47a19.18,19.18,0,0,0,15.62,8.08h0c.39,0,.77,0,1.15-.06s.49,0,.74,0a15.64,15.64,0,0,0,1.67-.25l.2,0c.6-.12,1.2-.27,1.79-.44h0a19.24,19.24,0,0,0,9.76-6.83v47.82a19.24,19.24,0,1,0,38.48,0V392a19.18,19.18,0,0,0,15.62,8.08h0A19.34,19.34,0,0,0,574.64,392v72.68a19.25,19.25,0,0,0,38.49,0V416.47a19.17,19.17,0,0,0,15.62,8.08h0a19,19,0,0,0,8.11-1.82,19.27,19.27,0,0,0,7.55-6.27v55.88a19.24,19.24,0,1,0,38.48,0V431.25a19.17,19.17,0,0,0,15.62,8.07h.05a19,19,0,0,0,8.18-1.85,19.36,19.36,0,0,0,7.48-6.23v47.12a19.24,19.24,0,1,0,38.48,0V452.2a19.17,19.17,0,0,0,15.62,8.08h0a19.32,19.32,0,0,0,19.24-19.2v-24a15.64,15.64,0,0,1,15.62-15.62ZM717.84,420.13V385.29a15.66,15.66,0,1,1,31.32,0v93.07a15.66,15.66,0,1,1-31.32,0Zm-34.91-4.57V398.2a19.2,19.2,0,0,0,31.33,0v21.88a15.67,15.67,0,0,1-31.33,0Zm-3.58,4.57v15.72a15.66,15.66,0,1,1-31.32,0V379.26a15.66,15.66,0,0,1,31.32,0v40.87ZM578.22,380.91v-3.68a19.18,19.18,0,0,0,31.33,0v87.48a15.67,15.67,0,0,1-31.33,0v-83.8Zm31.33-26.22V366.1a15.67,15.67,0,0,1-31.33,0V348a15.67,15.67,0,0,1,31.33,0v6.73Zm-101.13,110V427.28a19.17,19.17,0,0,0,31.32,0v37.43a15.66,15.66,0,0,1-31.32,0Zm-38.15-76.1a15.66,15.66,0,1,1-31.32,0V342.77a15.69,15.69,0,0,1,15.64-15.66,15.89,15.89,0,0,1,6.62,1.48,15.66,15.66,0,0,1,9.06,14.18v45.84ZM404,367.84V358a15.67,15.67,0,0,1,31.33,0v62.16a15.67,15.67,0,0,1-31.33,0V367.84Zm101.14-43.71a19.2,19.2,0,0,0-31.33,0v-25.9a15.67,15.67,0,0,1,31.33,0Zm0,44a18.59,18.59,0,0,0-.34,3.52v36.48A15.6,15.6,0,0,1,491,420.89l-.34,0c-.4,0-.8.06-1.2.06a15.68,15.68,0,0,1-15.64-15.66v-70a15.67,15.67,0,0,1,31.33,0v32.84Zm69.46-80.32V299.7a19.19,19.19,0,0,0-31.32,0V287.79a15.66,15.66,0,1,1,31.32,0Zm0,60.13v32.95a15.66,15.66,0,0,1-31.32,0v-70a15.66,15.66,0,1,1,31.32,0v37.08Zm69.81,31.3v26.09a15.66,15.66,0,0,1-31.32,0V353.75a15.66,15.66,0,1,1,31.32,0v25.47Zm69.81-63.35a19.2,19.2,0,0,0-31.33,0V294a15.67,15.67,0,0,1,31.33,0Zm0,43.62v27.57a15.67,15.67,0,0,1-31.33,0V327a15.67,15.67,0,1,1,31.33,0Zm34.9,0v14.66a19.19,19.19,0,0,0-31.32,0V359.49a15.66,15.66,0,0,1,31.32,0Zm34.9,19.08a19.19,19.19,0,0,0-31.32,0V348a15.66,15.66,0,0,1,31.32,0Z"/><rect class="cls-2" x="-162.6" y="392.71" width="486.85" height="3.58"/></svg>