<svg id="圖層_1" data-name="圖層 1" xmlns="http://www.w3.org/2000/svg" viewBox="0 0 408.16 408.18"><defs><style>.cls-1{fill:#dcdcdc;}.cls-2{fill:#989898;}</style></defs><title>csp</title><path class="cls-1" d="M1559.18,944.1c-112.53,0-204.07-91.55-204.07-204.07S1446.65,536,1559.18,536,1763.25,627.5,1763.25,740,1671.71,944.1,1559.18,944.1Zm0-385.48c-100,0-181.41,81.38-181.41,181.41s81.38,181.41,181.41,181.41S1740.59,840.05,1740.59,740,1659.21,558.62,1559.18,558.62Z" transform="translate(-1355.11 -535.94)"/><path class="cls-2" d="M1559,944.11a202.76,202.76,0,0,1-117.51-37.35,11.33,11.33,0,1,1,13.07-18.52A181.41,181.41,0,1,0,1559.35,558.6l-2.17,0a11.5,11.5,0,0,1-11.46-11.21,11.33,11.33,0,0,1,11.2-11.46h2.43a204.09,204.09,0,0,1-.33,408.17Z" transform="translate(-1355.11 -535.94)"/><path class="cls-2" d="M1507.47,724.53a13.64,13.64,0,0,0-9.69-4.6c-7.24,0-13.19,5.45-13.7,21.18,3.4-4.16,8.85-6.72,12.93-6.72,10.55,0,18,6.3,18,19.82,0,12.93-9,21-19.73,21-12,0-22.63-9.62-22.63-31.82,0-23.48,11.65-33.52,24.33-33.52a23.33,23.33,0,0,1,17.1,7.15Zm-3.91,29.68c0-7.48-3.49-11-8.93-11-3.4,0-7.15,1.79-10.3,6.64,1.2,11.48,5.45,15.9,10.72,15.9C1499.73,765.78,1503.56,761.87,1503.56,754.21Z" transform="translate(-1355.11 -535.94)"/><path class="cls-2" d="M1530.1,742.3c0-21.77,8.51-32.41,21.35-32.41s21.27,10.72,21.27,32.41-8.51,32.93-21.27,32.93S1530.1,764,1530.1,742.3Zm30.8,0c0-17.6-4.09-22.71-9.45-22.71s-9.52,5.11-9.52,22.71,4.08,23.14,9.52,23.14S1560.9,760,1560.9,742.3Z" transform="translate(-1355.11 -535.94)"/><path class="cls-2" d="M1587,729.71c0-12.59,6.3-19.82,15.31-19.82s15.4,7.23,15.4,19.82-6.38,20.08-15.4,20.08S1587,742.39,1587,729.71Zm21.86,0c0-9.27-2.89-12.76-6.55-12.76s-6.46,3.49-6.46,12.76,2.81,13,6.46,13S1608.87,739,1608.87,729.71Zm29.78-19.82h7.4l-34.28,65.34h-7.32Zm-5.87,45.26c0-12.67,6.38-19.91,15.31-19.91s15.4,7.24,15.4,19.91-6.47,20.08-15.4,20.08S1632.78,767.74,1632.78,755.15Zm21.86,0c0-9.27-2.89-12.85-6.55-12.85s-6.55,3.58-6.55,12.85,2.89,12.93,6.55,12.93S1654.64,764.42,1654.64,755.15Z" transform="translate(-1355.11 -535.94)"/></svg>