<svg id="圖層_1" data-name="圖層 1" xmlns="http://www.w3.org/2000/svg" viewBox="0 0 675.06 354.87"><defs><style>.cls-1{fill:#fff9f3;}.cls-2{fill:#7a7a7a;}</style></defs><title>hat</title><g id="學士帽"><path class="cls-1" d="M1298.89,949.77l-.37,0c-9.71-.57-96.65-6.67-160.49-42.38a6.42,6.42,0,0,1-3.29-5.6v-132a6.4,6.4,0,0,1,5.67-6.36l157.75-18.2a6.68,6.68,0,0,1,1.46,0l157.76,18.2a6.4,6.4,0,0,1,5.66,6.36v132a6.42,6.42,0,0,1-3.29,5.6c-63.83,35.71-150.78,41.81-160.48,42.38Z" transform="translate(-941.94 -623.06)"/><path class="cls-2" d="M1298.89,754.68l154.65,17.84V900c-61.45,33.69-144.4,39.69-154.65,40.31-10.26-.62-93.2-6.62-154.65-40.31V772.52l154.65-17.84m0-19a15.73,15.73,0,0,0-1.82.1L1139.32,754a15.91,15.91,0,0,0-14.08,15.8v132a15.91,15.91,0,0,0,8.15,13.89c65.67,36.73,154.47,43,164.56,43.58.31,0,.63,0,.94,0s.63,0,.94,0c10.09-.6,98.89-6.85,164.56-43.58a15.91,15.91,0,0,0,8.15-13.89v-132a15.91,15.91,0,0,0-14.08-15.8l-157.75-18.2a15.73,15.73,0,0,0-1.82-.1Z" transform="translate(-941.94 -623.06)"/><path class="cls-2" d="M1288.25,624.84,984.61,729.39a5.68,5.68,0,0,0,0,10.73l303.52,106a32.67,32.67,0,0,0,21.56,0l303.52-106a5.68,5.68,0,0,0,0-10.73L1309.53,624.84A32.73,32.73,0,0,0,1288.25,624.84Z" transform="translate(-941.94 -623.06)"/><rect class="cls-2" x="39.55" y="112" width="10" height="175.87"/><path class="cls-2" d="M1004.35,885.73a17.81,17.81,0,1,0-35.61-.46c-.68,47.94-8.42,74-26.8,92.66h44C999.59,952.9,1003.9,922.66,1004.35,885.73Z" transform="translate(-941.94 -623.06)"/></g></svg>