<?xml version="1.0" encoding="utf-8"?>
<!-- Generator: Adobe Illustrator 22.1.0, SVG Export Plug-In . SVG Version: 6.00 Build 0)  -->
<svg version="1.1" id="圖層_1" xmlns="http://www.w3.org/2000/svg" xmlns:xlink="http://www.w3.org/1999/xlink" x="0px" y="0px"
	 viewBox="0 0 263.7 141.5" style="enable-background:new 0 0 263.7 141.5;" xml:space="preserve">
<style type="text/css">
	.st0{fill:#FFF9F3;}
</style>
<title>logo</title>
<path class="st0" d="M57.4,43c-2,0-3.7-1.6-3.7-3.7l0,0v-2.9c0-2,1.7-3.7,3.7-3.7h13.9c2,0,3.7-1.7,3.7-3.7v-2.9
	c0-2-1.7-3.7-3.7-3.7H66c-2,0-3.7-1.6-3.7-3.7c0,0,0,0,0-0.1v-2.9c0-2,1.7-3.7,3.7-3.7l0,0h5.4c2,0,3.7-1.7,3.7-3.7V3.7
	c0-2-1.7-3.7-3.7-3.7H10.8c-4,0-7.2,3.1-7.4,7.1L0,96.9c0,10.3,8.4,18.6,18.7,18.7h49c4.1,0,7.4-3.3,7.4-7.4L75,46.7
	c0-2-1.7-3.7-3.7-3.7l0,0H57.4z"/>
<path class="st0" d="M245.4,141.5h-9.1c-1.5,0.1-2.9-1.1-3-2.6s1.1-2.9,2.6-3c0.1,0,0.2,0,0.3,0h9.1c7,0,12.7-5.7,12.7-12.7v-31
	c0-0.7-0.5-1.2-1.2-1.2s-1.2,0.5-1.2,1.2l0,0v11.2c0,6.6-5.4,12-12,12s-12-5.4-12-12V92c0-0.7-0.5-1.2-1.2-1.2h-0.1
	c-0.7,0-1.2,0.5-1.3,1.1c0,0,0,0,0,0.1v17.2c0,3.5-2.8,6.3-6.3,6.3c-10.7,0-19.3-8.6-19.4-19.3V42.9c0-1.9-1.5-3.4-3.4-3.4
	s-3.4,1.5-3.4,3.4l0.1,66.4c0,3.5-2.8,6.3-6.3,6.3h-16c-3.5,0-6.3-2.8-6.3-6.3V66.9c0-2-1.6-3.6-3.6-3.6s-3.6,1.6-3.6,3.6v42.3
	c0,3.5-2.8,6.3-6.3,6.3h-15.4c-3.5,0-6.3-2.8-6.3-6.3V65.3c0-1.6-1.3-2.9-2.9-2.9H126c-1.6,0-2.9,1.3-2.9,2.9v15.3
	c0,4.7-3.8,8.4-8.4,8.4s-8.4-3.8-8.4-8.4V65.4c0-1.6-1.3-2.9-2.9-2.9h-3.9c-1.6,0-2.9,1.3-2.9,2.9v43.9c0,3.5-2.8,6.3-6.3,6.3H47.5
	c-1.5,0-2.8-1.2-2.8-2.8c0-1.5,1.2-2.8,2.8-2.8h43.1c0.4,0,0.7-0.3,0.7-0.7V65.4c0-4.6,3.8-8.4,8.4-8.4h3.9c4.6,0,8.4,3.8,8.4,8.4
	v15.3c-0.1,1.6,1.1,2.9,2.7,3s2.9-1.1,3-2.7c0-0.1,0-0.2,0-0.3V65.4c0-4.6,3.8-8.4,8.4-8.4h3.9c4.6,0,8.4,3.8,8.4,8.4v43.9
	c0,0.4,0.3,0.7,0.7,0.7h15.4c0.4,0,0.7-0.3,0.7-0.7l0,0V67c0-5.1,4.1-9.2,9.1-9.2s9.2,4.1,9.2,9.1l0,0v42.3c0,0.4,0.3,0.7,0.7,0.7
	h16c0.4,0,0.7-0.3,0.7-0.7l0,0V42.9c0-4.9,4-8.9,8.9-8.9s8.9,4,8.9,8.9v53.3c0,7.6,6.2,13.8,13.8,13.8c0.4,0,0.7-0.3,0.7-0.7l0,0
	V92.1c0-3.8,3.1-6.8,6.8-6.8c3.8,0,6.8,3,6.8,6.8v11.5c-0.1,3.6,2.6,6.6,6.2,6.7c3.6,0.1,6.6-2.6,6.7-6.2c0-0.2,0-0.3,0-0.5V92.2
	c0-3.7,3-6.8,6.8-6.8c3.8,0,6.8,3,6.8,6.8l0,0v31C263.7,133.3,255.5,141.5,245.4,141.5L245.4,141.5z"/>
<circle class="st0" cx="164.2" cy="43" r="7.1"/>
</svg>
