<svg id="圖層_1" data-name="圖層 1" xmlns="http://www.w3.org/2000/svg" viewBox="0 0 408.25 408.25"><defs><style>.cls-1{fill:#dcdcdc;}.cls-2{fill:#46a0b0;}</style></defs><title>ps</title><path class="cls-1" d="M437.44,944.1c-112.52,0-204.07-91.55-204.07-204.08S324.92,536,437.44,536,641.52,627.5,641.52,740,550,944.1,437.44,944.1Zm0-385.49C337.42,558.61,256,640,256,740s81.39,181.41,181.41,181.41S618.85,840.05,618.85,740,537.47,558.61,437.44,558.61Z" transform="translate(-233.32 -535.9)"/><path class="cls-2" d="M437.48,944.15a204,204,0,0,1-194-267.49l21.54,7A181.23,181.23,0,1,0,438.42,558.57l.12-22.67a204.13,204.13,0,0,1-1.06,408.25Z" transform="translate(-233.32 -535.9)"/><path class="cls-2" d="M437.48,944.15a204,204,0,0,1-194-267.49,11.33,11.33,0,1,1,21.54,7A181.23,181.23,0,1,0,438.42,558.57a11.34,11.34,0,0,1,.06-22.67h.06a204.13,204.13,0,0,1-1.06,408.25Z" transform="translate(-233.32 -535.9)"/><path class="cls-2" d="M350.68,758.38c0-8.08,4.94-13.27,10.81-16.42v-.42c-4.85-3.49-8.34-8.26-8.34-15,0-10.12,8-16.58,19-16.58,11.15,0,18.29,6.72,18.29,16.75,0,6.21-3.91,11.4-8.08,14.38v.43c5.78,3.14,10.55,8.25,10.55,16.84,0,9.53-8.42,16.84-21.18,16.84C359.7,775.22,350.68,768.25,350.68,758.38Zm30.54-.43c0-6.55-5.78-9.27-14-12.59A15.16,15.16,0,0,0,361.49,757c0,5.7,4.68,9.36,10.55,9.36C377.31,766.38,381.22,763.4,381.22,758Zm-1-30.45c0-5.1-3.06-8.76-8.33-8.76-4.26,0-7.66,2.8-7.66,7.82,0,6,4.85,8.85,11.48,11.49A15.07,15.07,0,0,0,380.2,727.5Z" transform="translate(-233.32 -535.9)"/><path class="cls-2" d="M408.36,742.3c0-21.78,8.51-32.41,21.35-32.41S451,720.61,451,742.3s-8.51,32.92-21.27,32.92S408.36,764,408.36,742.3Zm30.79,0c0-17.61-4.08-22.71-9.44-22.71s-9.53,5.1-9.53,22.71,4.09,23.14,9.53,23.14S439.15,760,439.15,742.3Z" transform="translate(-233.32 -535.9)"/><path class="cls-2" d="M465.27,729.71c0-12.59,6.29-19.82,15.31-19.82s15.4,7.23,15.4,19.82-6.38,20.08-15.4,20.08S465.27,742.39,465.27,729.71Zm21.86,0c0-9.27-2.89-12.76-6.55-12.76s-6.46,3.49-6.46,12.76,2.8,13,6.46,13S487.13,739,487.13,729.71Zm29.78-19.82h7.4L490,775.22h-7.31ZM511,755.15c0-12.68,6.38-19.91,15.31-19.91s15.4,7.23,15.4,19.91-6.47,20.07-15.4,20.07S511,767.74,511,755.15Zm21.86,0c0-9.28-2.89-12.85-6.55-12.85s-6.55,3.57-6.55,12.85,2.89,12.93,6.55,12.93S532.9,764.42,532.9,755.15Z" transform="translate(-233.32 -535.9)"/></svg>