<svg xmlns="http://www.w3.org/2000/svg" viewBox="0 0 1367 1173.78"><defs><style>.cls-1{fill:#4ee5c8;}.cls-2{fill:#25ccac;}.cls-3{fill:#7a7a7a;}.cls-4{fill:#ffd833;}.cls-5{fill:#ceb449;}.cls-6{fill:#e0c34b;}.cls-7{fill:#efcc3c;}.cls-8{fill:none;stroke:#7a7a7a;stroke-linecap:round;stroke-miterlimit:10;stroke-width:15px;}</style></defs><title>school</title><g id="圖層_3" data-name="圖層 3"><rect class="cls-1" x="21" y="910.78" width="180" height="88" rx="44" ry="44"/><rect class="cls-1" x="1200" y="1085.78" width="88" height="88" rx="44" ry="44"/><path class="cls-2" d="M1310,1338h-94c-.67,0-1.34,0-2,0a44,44,0,0,1,0-87.9c-.66,0-1.33,0-2,0a44,44,0,0,0,0-88H1028a44,44,0,0,1,0-88h3a44,44,0,0,0,0-88H526a44,44,0,0,0,0,88h58a44,44,0,0,1,0,88h-7a44,44,0,0,0,0,88h-3c1.18,0,2.34.06,3.5.15a44,44,0,0,1,0,87.7c-1.16.09-2.32.15-3.5.15H511a44,44,0,0,0,0,88h799a44,44,0,0,0,0-88Z" transform="translate(-275 -252.22)"/></g><g id="圖層_2" data-name="圖層 2"><g id="學校"><path class="cls-3" d="M736,260.22a6.74,6.74,0,0,1,2.55.5l276.36,114.92a6.63,6.63,0,0,1,4.09,6.13v13.28a6.66,6.66,0,0,1-6.63,6.66,6.82,6.82,0,0,1-2.57-.52L744.69,291a22.69,22.69,0,0,0-17.38,0L462.2,401.19a6.82,6.82,0,0,1-2.57.52,6.66,6.66,0,0,1-6.63-6.66V381.77a6.63,6.63,0,0,1,4.09-6.13L733.45,260.72a6.74,6.74,0,0,1,2.55-.5m0-8a14.6,14.6,0,0,0-5.62,1.12L454,368.25a14.64,14.64,0,0,0-9,13.52v13.28a14.61,14.61,0,0,0,20.27,13.52L730.38,298.34a14.66,14.66,0,0,1,11.24,0l265.11,110.23A14.61,14.61,0,0,0,1027,395.05V381.77a14.64,14.64,0,0,0-9-13.52L741.62,253.34a14.6,14.6,0,0,0-5.62-1.12Z" transform="translate(-275 -252.22)"/><polygon class="cls-3" points="722 454.78 469 454.78 461 454.78 461 462.78 730 462.78 730 155.64 722 152.31 722 454.78"/><path class="cls-4" d="M736,353v33a85,85,0,0,1,0,170v33a118,118,0,0,0,0-236Z" transform="translate(-275 -252.22)"/><path class="cls-4" d="M746,471V414a10,10,0,0,0-10-10v77A10,10,0,0,0,746,471Z" transform="translate(-275 -252.22)"/><path class="cls-4" d="M744,533a8,8,0,0,0-8-8v16A8,8,0,0,0,744,533Z" transform="translate(-275 -252.22)"/><circle class="cls-4" cx="767" cy="524.69" r="8" transform="translate(-415.27 71.34) rotate(-21.88)"/><circle class="cls-4" cx="789.69" cy="502" r="8" transform="translate(-206.39 846.15) rotate(-72.04)"/><circle class="cls-4" cx="523" cy="218.78" r="8"/><path class="cls-3" d="M618,471A118,118,0,0,1,736,353V296L467,408V715H736V589A118,118,0,0,1,618,471Z" transform="translate(-275 -252.22)"/><path class="cls-3" d="M651,471a85,85,0,0,0,85,85V541a8,8,0,0,1,0-16V481H690a10,10,0,0,1,0-20h36V414a10,10,0,0,1,10-10V386A85,85,0,0,0,651,471Z" transform="translate(-275 -252.22)"/><rect class="cls-5" x="26" y="704.78" width="872" height="117"/><rect class="cls-6" x="26" y="738.78" width="872" height="83"/><rect class="cls-7" x="26" y="771.78" width="872" height="50"/><path class="cls-4" d="M1124.5,812a11.5,11.5,0,0,1,0-23H1197v-59a37.35,37.35,0,0,0-31.68-36.92L741.68,628a37.3,37.3,0,0,0-11.36,0L306.68,693.13A37.35,37.35,0,0,0,275,730.05V740.5h99a11.5,11.5,0,0,1,0,23H275V1050a24,24,0,0,0,24,24h17V902a45,45,0,0,1,45-45h0a45,45,0,0,1,45,45v172h47V878a68,68,0,0,1,68-68h0a68,68,0,0,1,68,68v196h47V858.5A100.51,100.51,0,0,1,736.5,758h0A100.51,100.51,0,0,1,837,858.5V1074h46V878a68,68,0,0,1,68-68h0a68,68,0,0,1,68,68v196h47V902a45,45,0,0,1,90,0v172h17a24,24,0,0,0,24-24V812Zm-715,0h-79a11.5,11.5,0,0,1,0-23h79a11.5,11.5,0,0,1,0,23Zm381-105a11.5,11.5,0,0,1,0-23h162a11.5,11.5,0,0,1,0,23Zm206,46h-67a11.5,11.5,0,0,1,0-23h67a11.5,11.5,0,0,1,0,23Z" transform="translate(-275 -252.22)"/><line class="cls-8" x1="699.5" y1="143.28" x2="699.5" y2="215.28"/><line class="cls-8" x1="669.5" y1="211.28" x2="669.5" y2="253.28"/><path class="cls-3" d="M736,260.22a6.74,6.74,0,0,1,2.55.5l276.36,114.92a6.63,6.63,0,0,1,4.09,6.13v13.28a6.66,6.66,0,0,1-6.63,6.66,6.82,6.82,0,0,1-2.57-.52L744.69,291a22.69,22.69,0,0,0-17.38,0L462.2,401.19a6.82,6.82,0,0,1-2.57.52,6.66,6.66,0,0,1-6.63-6.66V381.77a6.63,6.63,0,0,1,4.09-6.13L733.45,260.72a6.74,6.74,0,0,1,2.55-.5m0-8a14.6,14.6,0,0,0-5.62,1.12L454,368.25a14.64,14.64,0,0,0-9,13.52v13.28a14.61,14.61,0,0,0,20.27,13.52L730.38,298.34a14.66,14.66,0,0,1,11.24,0l265.11,110.23A14.61,14.61,0,0,0,1027,395.05V381.77a14.64,14.64,0,0,0-9-13.52L741.62,253.34a14.6,14.6,0,0,0-5.62-1.12Z" transform="translate(-275 -252.22)"/></g><g id="學士帽"><path class="cls-3" d="M1323.89,1031.68l154.65,17.84V1177c-61.45,33.69-144.4,39.69-154.65,40.31-10.26-.62-93.2-6.62-154.65-40.31V1049.52l154.65-17.84m0-19a15.73,15.73,0,0,0-1.82.1L1164.32,1031a15.91,15.91,0,0,0-14.08,15.8v132a15.91,15.91,0,0,0,8.15,13.89c65.67,36.73,154.47,43,164.56,43.58.31,0,.63,0,.94,0s.63,0,.94,0c10.09-.6,98.89-6.85,164.56-43.58a15.91,15.91,0,0,0,8.15-13.89v-132a15.91,15.91,0,0,0-14.08-15.8l-157.75-18.2a15.73,15.73,0,0,0-1.82-.1Z" transform="translate(-275 -252.22)"/><path class="cls-3" d="M1313.25,901.84l-303.64,104.55a5.68,5.68,0,0,0,0,10.73l303.52,106a32.67,32.67,0,0,0,21.56,0l303.52-106a5.68,5.68,0,0,0,0-10.73L1334.53,901.84A32.73,32.73,0,0,0,1313.25,901.84Z" transform="translate(-275 -252.22)"/><rect class="cls-3" x="731.49" y="759.84" width="10" height="175.87"/><path class="cls-3" d="M1029.35,1162.73a17.81,17.81,0,1,0-35.61-.46c-.68,47.94-8.42,74-26.8,92.66h44C1024.59,1229.9,1028.9,1199.66,1029.35,1162.73Z" transform="translate(-275 -252.22)"/></g></g></svg>