<svg id="圖層_1" data-name="圖層 1" xmlns="http://www.w3.org/2000/svg" viewBox="0 0 408.16 408.18"><defs><style>.cls-1{fill:#dcdcdc;}.cls-2{fill:#f5cc4e;}</style></defs><title>sketch</title><path class="cls-1" d="M2120.07,944.1C2007.55,944.1,1916,852.55,1916,740S2007.55,536,2120.07,536,2324.15,627.5,2324.15,740,2232.6,944.1,2120.07,944.1Zm0-385.48c-100,0-181.4,81.38-181.4,181.41s81.38,181.41,181.4,181.41S2301.49,840.05,2301.49,740,2220.11,558.62,2120.07,558.62Z" transform="translate(-1916 -535.94)"/><path class="cls-2" d="M2119.91,944.11a202.79,202.79,0,0,1-117.51-37.35,11.33,11.33,0,0,1,13.07-18.52A181.41,181.41,0,1,0,2120.24,558.6l-2.16,0h-.14a11.34,11.34,0,0,1-.13-22.67h2.43a204.09,204.09,0,0,1-.33,408.17Z" transform="translate(-1916 -535.94)"/><path class="cls-2" d="M2068.37,724.53a13.64,13.64,0,0,0-9.7-4.6c-7.23,0-13.19,5.45-13.7,21.18,3.41-4.16,8.85-6.72,12.93-6.72,10.55,0,18,6.3,18,19.82,0,12.93-9,21-19.74,21-12,0-22.63-9.62-22.63-31.82,0-23.48,11.66-33.52,24.33-33.52A23.33,23.33,0,0,1,2075,717Zm-3.92,29.68c0-7.48-3.48-11-8.93-11-3.4,0-7.14,1.79-10.29,6.64,1.19,11.48,5.44,15.9,10.72,15.9C2060.63,765.78,2064.45,761.87,2064.45,754.21Z" transform="translate(-1916 -535.94)"/><path class="cls-2" d="M2091,742.3c0-21.77,8.5-32.41,21.35-32.41s21.26,10.72,21.26,32.41-8.5,32.93-21.26,32.93S2091,764,2091,742.3Zm30.79,0c0-17.6-4.08-22.71-9.44-22.71s-9.53,5.11-9.53,22.71,4.08,23.14,9.53,23.14S2121.79,760,2121.79,742.3Z" transform="translate(-1916 -535.94)"/><path class="cls-2" d="M2147.9,729.71c0-12.59,6.3-19.82,15.32-19.82s15.39,7.23,15.39,19.82-6.38,20.08-15.39,20.08S2147.9,742.39,2147.9,729.71Zm21.87,0c0-9.27-2.89-12.76-6.55-12.76s-6.47,3.49-6.47,12.76,2.81,13,6.47,13S2169.77,739,2169.77,729.71Zm29.77-19.82h7.4l-34.28,65.34h-7.32Zm-5.87,45.26c0-12.67,6.38-19.91,15.31-19.91s15.4,7.24,15.4,19.91-6.46,20.08-15.4,20.08S2193.67,767.74,2193.67,755.15Zm21.86,0c0-9.27-2.89-12.85-6.55-12.85s-6.55,3.58-6.55,12.85,2.9,12.93,6.55,12.93S2215.53,764.42,2215.53,755.15Z" transform="translate(-1916 -535.94)"/></svg>